<?xml version="1.0" encoding="UTF-8"?>
<svg id="Layer_1" xmlns="http://www.w3.org/2000/svg" version="1.1" viewBox="0 0 107.9 47.8">
  <!-- Generator: Adobe Illustrator 29.3.0, SVG Export Plug-In . SVG Version: 2.1.0 Build 146)  -->
  <defs>
    <style>
      .st0 {
        fill: #a9cea3;
      }

      .st1 {
        fill: none;
        stroke: #fff;
        stroke-miterlimit: 10;
      }

      .st2 {
        isolation: isolate;
      }

      .st3 {
        fill: #fff;
      }
    </style>
  </defs>
  <rect class="st0" width="107.9" height="47.8"/>
  <polyline class="st1" points="56.8 13.7 56.8 6.8 4.8 6.8 4.8 42.1 56.8 42.1 56.8 34.1"/>
  <g class="st2">
    <g class="st2">
      <path class="st3" d="M13.4,29c-1.2-1.2-1.9-3-1.9-5s.7-3.6,1.9-5c1.2-1.3,2.8-2.1,4.7-2.1s3.4.8,4.5,2.1c1.2,1.4,1.9,3,1.9,5s-.7,3.7-1.9,5c-1.1,1.3-2.7,2.2-4.5,2.2s-3.4-.8-4.7-2.2ZM14.5,24.1c0,1.2.4,2.2,1,3,.7.7,1.6,1,2.6,1s1.8-.4,2.5-1c.7-.8,1.1-1.8,1.1-3s-.4-2.2-1.1-2.9c-.7-.6-1.5-1.1-2.5-1.1s-1.9.5-2.6,1.1c-.6.8-1,1.8-1,2.9Z"/>
    </g>
    <g class="st2">
      <path class="st3" d="M27.8,34.9v-10.8h0v-5.6c0-.8.7-1.5,1.4-1.5s1.4.5,1.5,1.2c1-.7,2.3-1.2,3.7-1.2,3.6,0,6.6,3.2,6.6,7.1s-3,7-6.6,7-2.7-.4-3.6-1.2v5c0,.8-.7,1.5-1.5,1.5s-1.4-.7-1.4-1.5ZM30.7,24.1c0,1.1.4,2.2,1.1,2.8.7.8,1.6,1.2,2.6,1.2s1.8-.4,2.6-1.2c.6-.7,1.1-1.7,1.1-2.8s-.4-2.1-1.1-2.9c-.7-.8-1.6-1.2-2.6-1.2s-1.9.4-2.6,1.2c-.7.7-1.1,1.8-1.1,2.9Z"/>
    </g>
    <g class="st2">
      <path class="st3" d="M43.1,24c0-3.8,2.9-7.1,6.6-7.1s6.3,2.7,6.5,6.6h0c0,.2,0,.3,0,.4,0,.7-.7,1.1-1.4,1.1h-8.6c.1.7.4,1.4.9,1.9.6.7,1.7,1.2,2.6,1.3,1,0,2.1-.2,2.8-.7.6-.6,1.7-.5,2,0,.4.4.6,1.2,0,1.8-1.3,1.3-2.9,1.9-4.9,1.9-3.7,0-6.6-3.2-6.6-7.1ZM46.1,22.7h7.7c-.3-1.1-1.7-2.8-4-3-2.3.1-3.4,1.8-3.7,3Z"/>
      <path class="st3" d="M70.6,22.9v6.8c0,.8-.6,1.5-1.4,1.5s-1.4-.7-1.4-1.5v-6.8c0-1.6-1.3-2.9-2.8-2.9s-2.7,1.3-2.7,2.9v6.8c0,0,0,.2,0,.3-.1.7-.7,1.2-1.4,1.2s-1.4-.7-1.4-1.5v-11.1c0-.8.6-1.5,1.4-1.5s1.1.3,1.3.9c.8-.5,1.8-.9,2.9-.9,3.2,0,5.7,2.7,5.7,5.9Z"/>
      <path class="st3" d="M76.2,11.3c.8,0,1.5.7,1.5,1.6v16.7c0,.8-.7,1.6-1.5,1.6s-1.5-.7-1.5-1.6V12.9c0-.8.7-1.6,1.5-1.6Z"/>
    </g>
    <g class="st2">
      <path class="st3" d="M81.6,11.3c.8,0,1.5.7,1.5,1.6v16.7c0,.8-.7,1.6-1.5,1.6s-1.5-.7-1.5-1.6V12.9c0-.8.7-1.6,1.5-1.6Z"/>
    </g>
    <g class="st2">
      <path class="st3" d="M97.3,18.5v10.7c0,3.8-2.9,6.8-6.5,6.8s-2-.3-2.8-.7c-.8-.3-1-1.2-.7-2,.4-.7,1.3-1,1.9-.6.5.3,1,.4,1.6.4,1.6,0,3-1.1,3.4-2.6-.8.5-1.7.7-2.6.7-3.1,0-5.7-2.7-5.7-5.9v-6.7c0-.8.7-1.5,1.4-1.5s1.4.7,1.4,1.5v6.7c0,1.6,1.3,2.9,2.8,2.9s2.8-1.2,2.8-2.9v-6.7c0-.8.6-1.5,1.4-1.5s1.5.7,1.5,1.5Z"/>
    </g>
  </g>
</svg>